{"accessors":[{"bufferView":0,"byteOffset":0,"componentType":5126,"count":1736,"max":[0.0176510531455278,0.0264033693820238,0.0183254331350327],"min":[-0.02425256930292,-0.00956499855965,-0.04545593261719],"normalized":false,"type":"VEC3"},{"bufferView":1,"byteOffset":0,"componentType":5126,"count":1736,"max":[0.999636948108673,0.997785568237305,0.998441159725189,1],"min":[-0.99902755022049,-0.99940466880798,-0.99993407726288,-1],"normalized":false,"type":"VEC4"},{"bufferView":2,"byteOffset":0,"componentType":5126,"count":1736,"max":[0.999963223934174,0.999602079391479,0.998611330986023],"min":[-0.99957877397537,-0.99907302856445,-0.99912947416306],"normalized":false,"type":"VEC3"},{"bufferView":3,"byteOffset":0,"componentType":5126,"count":1736,"max":[0.884745478630066,1],"min":[0.0786108821630478,0.0811161994934082],"normalized":false,"type":"VEC2"},{"bufferView":4,"byteOffset":0,"componentType":5123,"count":6282,"max":[1564],"min":[0],"normalized":false,"type":"SCALAR"},{"bufferView":5,"byteOffset":0,"componentType":5126,"count":1860,"max":[0.0117999855428934,0.020709466189146,0.0398163199424744],"min":[-0.01477277558297,-0.00240575987846,-0.01281354110688],"normalized":false,"type":"VEC3"},{"bufferView":6,"byteOffset":0,"componentType":5126,"count":1860,"max":[0.999993026256561,0.999156475067139,0.999993145465851,1],"min":[-0.99884355068207,-0.99985635280609,-0.99787700176239,-1],"normalized":false,"type":"VEC4"},{"bufferView":7,"byteOffset":0,"componentType":5126,"count":1860,"max":[0.999943792819977,0.999871909618378,0.998545110225677],"min":[-0.99998712539673,-0.99832940101624,-0.99417614936829],"normalized":false,"type":"VEC3"},{"bufferView":8,"byteOffset":0,"componentType":5126,"count":1860,"max":[0.999999940395355,1],"min":[-0.00000001878233,0.111260890960693],"normalized":false,"type":"VEC2"},{"bufferView":9,"byteOffset":0,"componentType":5123,"count":7452,"max":[1766],"min":[0],"normalized":false,"type":"SCALAR"},{"bufferView":10,"byteOffset":0,"componentType":5126,"count":1294,"max":[0.0155073348432779,0.0162400156259537,0.0458254776895046],"min":[-0.02911507338285,-0.02220763266087,-0.00995673798025],"normalized":false,"type":"VEC3"},{"bufferView":11,"byteOffset":0,"componentType":5126,"count":1294,"max":[0.988756060600281,0.980208396911621,0.98545891046524,1],"min":[-0.99433434009552,-0.99923342466354,-0.70500648021698,1],"normalized":false,"type":"VEC4"},{"bufferView":12,"byteOffset":0,"componentType":5126,"count":1294,"max":[0.998119592666626,0.999385833740234,0.999761641025543],"min":[-0.99763298034668,-0.99992269277573,-0.99597036838531],"normalized":false,"type":"VEC3"},{"bufferView":13,"byteOffset":0,"componentType":5126,"count":1294,"max":[0.896970570087433,1],"min":[-0.00000003174835,0.0936407446861267],"normalized":false,"type":"VEC2"},{"bufferView":14,"byteOffset":0,"componentType":5123,"count":5418,"max":[1216],"min":[0],"normalized":false,"type":"SCALAR"}],"asset":{"generator":"Godot Engine v4.3.stable.official@77dcf97d82cbfe4e4615475fa52ca03da645dbd8","version":"2.0"},"bufferViews":[{"buffer":0,"byteLength":20832,"byteOffset":0,"byteStride":12,"target":34962},{"buffer":0,"byteLength":27776,"byteOffset":20832,"byteStride":16,"target":34962},{"buffer":0,"byteLength":20832,"byteOffset":48608,"byteStride":12,"target":34962},{"buffer":0,"byteLength":13888,"byteOffset":69440,"byteStride":8,"target":34962},{"buffer":0,"byteLength":12564,"byteOffset":83328,"target":34963},{"buffer":0,"byteLength":22320,"byteOffset":95892,"byteStride":12,"target":34962},{"buffer":0,"byteLength":29760,"byteOffset":118212,"byteStride":16,"target":34962},{"buffer":0,"byteLength":22320,"byteOffset":147972,"byteStride":12,"target":34962},{"buffer":0,"byteLength":14880,"byteOffset":170292,"byteStride":8,"target":34962},{"buffer":0,"byteLength":14904,"byteOffset":185172,"target":34963},{"buffer":0,"byteLength":15528,"byteOffset":200076,"byteStride":12,"target":34962},{"buffer":0,"byteLength":20704,"byteOffset":215604,"byteStride":16,"target":34962},{"buffer":0,"byteLength":15528,"byteOffset":236308,"byteStride":12,"target":34962},{"buffer":0,"byteLength":10352,"byteOffset":251836,"byteStride":8,"target":34962},{"buffer":0,"byteLength":10836,"byteOffset":262188,"target":34963}],"buffers":[{"byteLength":273024,"uri":"osso0.bin"}],"extensionsUsed":["GODOT_single_root","KHR_materials_emissive_strength"],"materials":[{"emissiveFactor":[0.999999940395355,0.999999940395355,0.999999940395355],"extensions":{"KHR_materials_emissive_strength":{"emissiveStrength":0}},"name":"Material_001","pbrMetallicRoughness":{"baseColorFactor":[0.149379685521126,0.0905886292457581,0.0409766137599945,1],"metallicFactor":0,"roughnessFactor":1}}],"meshes":[{"extras":{"targetNames":[]},"primitives":[{"attributes":{"NORMAL":2,"POSITION":0,"TANGENT":1,"TEXCOORD_0":3},"indices":4,"material":0,"mode":4}]},{"extras":{"targetNames":[]},"primitives":[{"attributes":{"NORMAL":7,"POSITION":5,"TANGENT":6,"TEXCOORD_0":8},"indices":9,"material":0,"mode":4}]},{"extras":{"targetNames":[]},"primitives":[{"attributes":{"NORMAL":12,"POSITION":10,"TANGENT":11,"TEXCOORD_0":13},"indices":14,"material":0,"mode":4}]}],"nodes":[{"children":[1,2,3],"name":"osso"},{"mesh":0,"name":"osso parte 1","rotation":[-0.70710682868958,0,0,0.707106709480286],"scale":[100,99.9999923706055,99.9999923706055]},{"mesh":1,"name":"osso parte 2 ","rotation":[-0.70710682868958,0,0,0.707106709480286],"scale":[100,99.9999923706055,99.9999923706055],"translation":[63.4900665283203,-0.38539338111877,1.01362287998199]},{"mesh":2,"name":"osso parte 3","rotation":[-0.70710682868958,0,0,0.707106709480286],"scale":[100,99.9999923706055,99.9999923706055],"translation":[65.8337936401367,-8.40425109863281,-0.92677599191666]}],"scene":0,"scenes":[{"nodes":[0]}]}